<svg xmlns="http://www.w3.org/2000/svg" width="210mm" height="297mm" viewBox="0 0 210 297">
        <polygon points="205.0,148.5 175.71067811865476,177.78932188134524 175.71067811865476,219.21067811865476 134.28932188134524,219.21067811865476 105.0,248.5 75.71067811865476,219.21067811865476 34.28932188134526,219.21067811865476 34.289321881345245,177.78932188134524 5.0,148.5 34.289321881345245,119.21067811865476 34.28932188134523,77.78932188134526 75.71067811865471,77.78932188134527 104.99999999999999,48.5 134.28932188134527,77.78932188134526 175.71067811865476,77.78932188134523 175.71067811865473,119.2106781186547" fill="none" stroke="black" stroke-width="1" stroke-linejoin="round" /> <polygon points="115.60660171779821,148.5 105.0,159.1066017177982 94.39339828220179,148.5 105.0,137.8933982822018" fill="none" stroke="black" stroke-width="0.2" /> <polygon points="112.5,156.0 97.5,156.0 97.5,141.0 112.5,141.0" fill="none" stroke="black" stroke-width="0.2" /> <circle cx="105.0" cy="148.5" r="5" fill="none" stroke="black" stroke-width="1.5" /> <polygon points="137.4816017177982,148.5 126.875,159.1066017177982 116.26839828220179,148.5 126.875,137.8933982822018" fill="none" stroke="black" stroke-width="0.2" /> <polygon points="134.375,156.0 119.375,156.0 119.375,141.0 134.375,141.0" fill="none" stroke="black" stroke-width="0.2" /> <circle cx="126.875" cy="148.5" r="5" fill="none" stroke="black" stroke-width="1.5" /> <polygon points="131.07456255625394,163.96796083845572 120.46796083845572,174.57456255625394 109.86135912065751,163.96796083845572 120.46796083845572,153.3613591206575" fill="none" stroke="black" stroke-width="0.2" /> <polygon points="127.96796083845572,171.46796083845572 112.96796083845572,171.46796083845572 112.96796083845572,156.46796083845572 127.96796083845572,156.46796083845572" fill="none" stroke="black" stroke-width="0.2" /> <circle cx="120.46796083845572" cy="163.96796083845572" r="5" fill="none" stroke="black" stroke-width="1.5" /> <polygon points="115.60660171779821,170.375 105.0,180.9816017177982 94.39339828220179,170.375 105.0,159.7683982822018" fill="none" stroke="black" stroke-width="0.2" /> <polygon points="112.5,177.875 97.5,177.875 97.5,162.875 112.5,162.875" fill="none" stroke="black" stroke-width="0.2" /> <circle cx="105.0" cy="170.375" r="5" fill="none" stroke="black" stroke-width="1.5" /> <polygon points="100.13864087934249,163.96796083845572 89.53203916154428,174.57456255625394 78.92543744374606,163.96796083845572 89.53203916154428,153.3613591206575" fill="none" stroke="black" stroke-width="0.2" /> <polygon points="97.03203916154428,171.46796083845572 82.03203916154428,171.46796083845572 82.03203916154428,156.46796083845572 97.03203916154428,156.46796083845572" fill="none" stroke="black" stroke-width="0.2" /> <circle cx="89.53203916154428" cy="163.96796083845572" r="5" fill="none" stroke="black" stroke-width="1.5" /> <polygon points="93.73160171779821,148.5 83.125,159.1066017177982 72.51839828220179,148.5 83.125,137.8933982822018" fill="none" stroke="black" stroke-width="0.2" /> <polygon points="90.625,156.0 75.625,156.0 75.625,141.0 90.625,141.0" fill="none" stroke="black" stroke-width="0.2" /> <circle cx="83.125" cy="148.5" r="5" fill="none" stroke="black" stroke-width="1.5" /> <polygon points="100.13864087934249,133.03203916154428 89.53203916154428,143.6386408793425 78.92543744374606,133.03203916154428 89.53203916154428,122.42543744374606" fill="none" stroke="black" stroke-width="0.2" /> <polygon points="97.03203916154428,140.53203916154428 82.03203916154428,140.53203916154428 82.03203916154428,125.53203916154428 97.03203916154428,125.53203916154428" fill="none" stroke="black" stroke-width="0.2" /> <circle cx="89.53203916154428" cy="133.03203916154428" r="5" fill="none" stroke="black" stroke-width="1.5" /> <polygon points="115.60660171779821,126.625 105.0,137.2316017177982 94.39339828220179,126.625 105.0,116.01839828220179" fill="none" stroke="black" stroke-width="0.2" /> <polygon points="112.5,134.125 97.5,134.125 97.5,119.125 112.5,119.125" fill="none" stroke="black" stroke-width="0.2" /> <circle cx="105.0" cy="126.625" r="5" fill="none" stroke="black" stroke-width="1.5" /> <polygon points="131.07456255625394,133.03203916154428 120.46796083845572,143.6386408793425 109.86135912065751,133.03203916154428 120.46796083845572,122.42543744374606" fill="none" stroke="black" stroke-width="0.2" /> <polygon points="127.96796083845572,140.53203916154428 112.96796083845572,140.53203916154428 112.96796083845572,125.53203916154428 127.96796083845572,125.53203916154428" fill="none" stroke="black" stroke-width="0.2" /> <circle cx="120.46796083845572" cy="133.03203916154428" r="5" fill="none" stroke="black" stroke-width="1.5" /> <polygon points="153.1066017177982,148.5 142.5,159.1066017177982 131.8933982822018,148.5 142.5,137.8933982822018" fill="none" stroke="black" stroke-width="0.2" /> <polygon points="150.0,156.0 135.0,156.0 135.0,141.0 150.0,141.0" fill="none" stroke="black" stroke-width="0.2" /> <circle cx="142.5" cy="148.5" r="5" fill="none" stroke="black" stroke-width="1.5" /> <polygon points="142.12310601229373,175.01650429449552 131.51650429449552,185.62310601229373 120.9099025766973,175.01650429449552 131.51650429449552,164.4099025766973" fill="none" stroke="black" stroke-width="0.2" /> <polygon points="139.01650429449552,182.51650429449552 124.01650429449552,182.51650429449552 124.01650429449552,167.51650429449552 139.01650429449552,167.51650429449552" fill="none" stroke="black" stroke-width="0.2" /> <circle cx="131.51650429449552" cy="175.01650429449552" r="5" fill="none" stroke="black" stroke-width="1.5" /> <polygon points="115.60660171779821,186.0 105.0,196.6066017177982 94.39339828220179,186.0 105.0,175.3933982822018" fill="none" stroke="black" stroke-width="0.2" /> <polygon points="112.5,193.5 97.5,193.5 97.5,178.5 112.5,178.5" fill="none" stroke="black" stroke-width="0.2" /> <circle cx="105.0" cy="186.0" r="5" fill="none" stroke="black" stroke-width="1.5" /> <polygon points="89.09009742330268,175.01650429449552 78.48349570550447,185.62310601229373 67.87689398770625,175.01650429449552 78.48349570550447,164.4099025766973" fill="none" stroke="black" stroke-width="0.2" /> <polygon points="85.98349570550447,182.51650429449552 70.98349570550447,182.51650429449552 70.98349570550447,167.51650429449552 85.98349570550447,167.51650429449552" fill="none" stroke="black" stroke-width="0.2" /> <circle cx="78.48349570550447" cy="175.01650429449552" r="5" fill="none" stroke="black" stroke-width="1.5" /> <polygon points="78.10660171779821,148.5 67.5,159.1066017177982 56.89339828220179,148.5 67.5,137.8933982822018" fill="none" stroke="black" stroke-width="0.2" /> <polygon points="75.0,156.0 60.0,156.0 60.0,141.0 75.0,141.0" fill="none" stroke="black" stroke-width="0.2" /> <circle cx="67.5" cy="148.5" r="5" fill="none" stroke="black" stroke-width="1.5" /> <polygon points="89.09009742330268,121.98349570550448 78.48349570550447,132.5900974233027 67.87689398770625,121.98349570550448 78.48349570550447,111.37689398770627" fill="none" stroke="black" stroke-width="0.2" /> <polygon points="85.98349570550447,129.48349570550448 70.98349570550447,129.48349570550448 70.98349570550447,114.48349570550448 85.98349570550447,114.48349570550448" fill="none" stroke="black" stroke-width="0.2" /> <circle cx="78.48349570550447" cy="121.98349570550448" r="5" fill="none" stroke="black" stroke-width="1.5" /> <polygon points="115.60660171779821,111.0 105.0,121.60660171779821 94.39339828220179,111.0 105.0,100.39339828220179" fill="none" stroke="black" stroke-width="0.2" /> <polygon points="112.5,118.5 97.5,118.5 97.5,103.5 112.5,103.5" fill="none" stroke="black" stroke-width="0.2" /> <circle cx="105.0" cy="111.0" r="5" fill="none" stroke="black" stroke-width="1.5" /> <polygon points="142.12310601229373,121.98349570550447 131.51650429449552,132.59009742330267 120.9099025766973,121.98349570550447 131.51650429449552,111.37689398770625" fill="none" stroke="black" stroke-width="0.2" /> <polygon points="139.01650429449552,129.48349570550448 124.01650429449552,129.48349570550448 124.01650429449552,114.48349570550447 139.01650429449552,114.48349570550447" fill="none" stroke="black" stroke-width="0.2" /> <circle cx="131.51650429449552" cy="121.98349570550447" r="5" fill="none" stroke="black" stroke-width="1.5" /> <polygon points="168.7316017177982,148.5 158.125,159.1066017177982 147.5183982822018,148.5 158.125,137.8933982822018" fill="none" stroke="black" stroke-width="0.2" /> <polygon points="165.625,156.0 150.625,156.0 150.625,141.0 165.625,141.0" fill="none" stroke="black" stroke-width="0.2" /> <circle cx="158.125" cy="148.5" r="5" fill="none" stroke="black" stroke-width="1.5" /> <polygon points="164.68770188246032,168.83005734439539 154.0811001646621,179.4366590621936 143.4744984468639,168.83005734439539 154.0811001646621,158.22345562659717" fill="none" stroke="black" stroke-width="0.2" /> <polygon points="161.5811001646621,176.33005734439539 146.5811001646621,176.33005734439539 146.5811001646621,161.33005734439539 161.5811001646621,161.33005734439539" fill="none" stroke="black" stroke-width="0.2" /> <circle cx="154.0811001646621" cy="168.83005734439539" r="5" fill="none" stroke="black" stroke-width="1.5" /> <polygon points="153.17164946833356,186.06504775053534 142.56504775053534,196.67164946833356 131.95844603273713,186.06504775053534 142.56504775053534,175.45844603273713" fill="none" stroke="black" stroke-width="0.2" /> <polygon points="150.06504775053534,193.56504775053534 135.06504775053534,193.56504775053534 135.06504775053534,178.56504775053534 150.06504775053534,178.56504775053534" fill="none" stroke="black" stroke-width="0.2" /> <circle cx="142.56504775053534" cy="186.06504775053534" r="5" fill="none" stroke="black" stroke-width="1.5" /> <polygon points="135.9366590621936,197.5811001646621 125.3300573443954,208.18770188246032 114.72345562659719,197.5811001646621 125.3300573443954,186.9744984468639" fill="none" stroke="black" stroke-width="0.2" /> <polygon points="132.8300573443954,205.0811001646621 117.8300573443954,205.0811001646621 117.8300573443954,190.0811001646621 132.83005734439539,190.0811001646621" fill="none" stroke="black" stroke-width="0.2" /> <circle cx="125.3300573443954" cy="197.5811001646621" r="5" fill="none" stroke="black" stroke-width="1.5" /> <polygon points="115.60660171779821,201.625 105.0,212.2316017177982 94.39339828220179,201.625 105.0,191.0183982822018" fill="none" stroke="black" stroke-width="0.2" /> <polygon points="112.5,209.125 97.5,209.125 97.5,194.125 112.5,194.125" fill="none" stroke="black" stroke-width="0.2" /> <circle cx="105.0" cy="201.625" r="5" fill="none" stroke="black" stroke-width="1.5" /> <polygon points="95.27654437340283,197.5811001646621 84.66994265560461,208.18770188246032 74.0633409378064,197.5811001646621 84.66994265560461,186.9744984468639" fill="none" stroke="black" stroke-width="0.2" /> <polygon points="92.16994265560461,205.0811001646621 77.16994265560461,205.0811001646621 77.16994265560461,190.0811001646621 92.16994265560461,190.0811001646621" fill="none" stroke="black" stroke-width="0.2" /> <circle cx="84.66994265560461" cy="197.5811001646621" r="5" fill="none" stroke="black" stroke-width="1.5" /> <polygon points="78.04155396726287,186.06504775053534 67.43495224946466,196.67164946833356 56.828350531666445,186.06504775053534 67.43495224946466,175.45844603273713" fill="none" stroke="black" stroke-width="0.2" /> <polygon points="74.93495224946466,193.56504775053534 59.93495224946466,193.56504775053534 59.93495224946466,178.56504775053534 74.93495224946466,178.56504775053534" fill="none" stroke="black" stroke-width="0.2" /> <circle cx="67.43495224946466" cy="186.06504775053534" r="5" fill="none" stroke="black" stroke-width="1.5" /> <polygon points="66.52550155313611,168.8300573443954 55.91889983533789,179.43665906219363 45.312298117539676,168.8300573443954 55.91889983533789,158.2234556265972" fill="none" stroke="black" stroke-width="0.2" /> <polygon points="63.41889983533789,176.3300573443954 48.41889983533789,176.3300573443954 48.41889983533789,161.3300573443954 63.41889983533789,161.3300573443954" fill="none" stroke="black" stroke-width="0.2" /> <circle cx="55.91889983533789" cy="168.8300573443954" r="5" fill="none" stroke="black" stroke-width="1.5" /> <polygon points="62.48160171779821,148.5 51.875,159.1066017177982 41.26839828220179,148.5 51.875,137.8933982822018" fill="none" stroke="black" stroke-width="0.2" /> <polygon points="59.375,156.0 44.375,156.0 44.375,141.0 59.375,141.0" fill="none" stroke="black" stroke-width="0.2" /> <circle cx="51.875" cy="148.5" r="5" fill="none" stroke="black" stroke-width="1.5" /> <polygon points="66.52550155313611,128.16994265560461 55.91889983533789,138.77654437340283 45.312298117539676,128.16994265560461 55.91889983533789,117.5633409378064" fill="none" stroke="black" stroke-width="0.2" /> <polygon points="63.41889983533789,135.66994265560461 48.41889983533789,135.66994265560461 48.41889983533789,120.66994265560461 63.41889983533789,120.66994265560461" fill="none" stroke="black" stroke-width="0.2" /> <circle cx="55.91889983533789" cy="128.16994265560461" r="5" fill="none" stroke="black" stroke-width="1.5" /> <polygon points="78.04155396726287,110.93495224946467 67.43495224946466,121.54155396726289 56.828350531666445,110.93495224946467 67.43495224946466,100.32835053166646" fill="none" stroke="black" stroke-width="0.2" /> <polygon points="74.93495224946466,118.43495224946467 59.93495224946466,118.43495224946467 59.93495224946466,103.43495224946467 74.93495224946466,103.43495224946467" fill="none" stroke="black" stroke-width="0.2" /> <circle cx="67.43495224946466" cy="110.93495224946467" r="5" fill="none" stroke="black" stroke-width="1.5" /> <polygon points="95.27654437340279,99.4188998353379 84.66994265560457,110.02550155313611 74.06334093780636,99.4188998353379 84.66994265560457,88.81229811753968" fill="none" stroke="black" stroke-width="0.2" /> <polygon points="92.16994265560457,106.9188998353379 77.16994265560457,106.9188998353379 77.16994265560457,91.9188998353379 92.16994265560457,91.9188998353379" fill="none" stroke="black" stroke-width="0.2" /> <circle cx="84.66994265560457" cy="99.4188998353379" r="5" fill="none" stroke="black" stroke-width="1.5" /> <polygon points="115.6066017177982,95.375 104.99999999999999,105.98160171779821 94.39339828220177,95.375 104.99999999999999,84.76839828220179" fill="none" stroke="black" stroke-width="0.2" /> <polygon points="112.49999999999999,102.875 97.49999999999999,102.875 97.49999999999999,87.875 112.49999999999999,87.875" fill="none" stroke="black" stroke-width="0.2" /> <circle cx="104.99999999999999" cy="95.375" r="5" fill="none" stroke="black" stroke-width="1.5" /> <polygon points="135.93665906219363,99.4188998353379 125.33005734439541,110.02550155313611 114.7234556265972,99.4188998353379 125.33005734439541,88.81229811753968" fill="none" stroke="black" stroke-width="0.2" /> <polygon points="132.8300573443954,106.9188998353379 117.83005734439541,106.9188998353379 117.83005734439541,91.9188998353379 132.8300573443954,91.9188998353379" fill="none" stroke="black" stroke-width="0.2" /> <circle cx="125.33005734439541" cy="99.4188998353379" r="5" fill="none" stroke="black" stroke-width="1.5" /> <polygon points="153.17164946833353,110.93495224946466 142.5650477505353,121.54155396726287 131.9584460327371,110.93495224946466 142.5650477505353,100.32835053166644" fill="none" stroke="black" stroke-width="0.2" /> <polygon points="150.0650477505353,118.43495224946466 135.0650477505353,118.43495224946466 135.0650477505353,103.43495224946466 150.0650477505353,103.43495224946466" fill="none" stroke="black" stroke-width="0.2" /> <circle cx="142.5650477505353" cy="110.93495224946466" r="5" fill="none" stroke="black" stroke-width="1.5" /> <polygon points="164.68770188246032,128.1699426556046 154.0811001646621,138.7765443734028 143.4744984468639,128.1699426556046 154.0811001646621,117.56334093780637" fill="none" stroke="black" stroke-width="0.2" /> <polygon points="161.5811001646621,135.6699426556046 146.5811001646621,135.6699426556046 146.5811001646621,120.66994265560459 161.5811001646621,120.66994265560459" fill="none" stroke="black" stroke-width="0.2" /> <circle cx="154.0811001646621" cy="128.1699426556046" r="5" fill="none" stroke="black" stroke-width="1.5" /> <polygon points="184.3566017177982,148.5 173.75,159.1066017177982 163.1433982822018,148.5 173.75,137.8933982822018" fill="none" stroke="black" stroke-width="0.2" /> <polygon points="181.25,156.0 166.25,156.0 166.25,141.0 181.25,141.0" fill="none" stroke="black" stroke-width="0.2" /> <circle cx="173.75" cy="148.5" r="5" fill="none" stroke="black" stroke-width="1.5" /> <polygon points="179.12331957794916,174.80948597509993 168.51671786015095,185.41608769289815 157.91011614235273,174.80948597509993 168.51671786015095,164.20288425730172" fill="none" stroke="black" stroke-width="0.2" /> <polygon points="176.01671786015095,182.30948597509993 161.01671786015095,182.30948597509993 161.01671786015095,167.30948597509993 176.01671786015095,167.30948597509993" fill="none" stroke="black" stroke-width="0.2" /> <circle cx="168.51671786015095" cy="174.80948597509993" r="5" fill="none" stroke="black" stroke-width="1.5" /> <polygon points="164.22019292437335,197.11359120657514 153.61359120657514,207.72019292437335 143.00698948877692,197.11359120657514 153.61359120657514,186.50698948877692" fill="none" stroke="black" stroke-width="0.2" /> <polygon points="161.11359120657514,204.61359120657514 146.11359120657514,204.61359120657514 146.11359120657514,189.61359120657514 161.11359120657514,189.61359120657514" fill="none" stroke="black" stroke-width="0.2" /> <circle cx="153.61359120657514" cy="197.11359120657514" r="5" fill="none" stroke="black" stroke-width="1.5" /> <polygon points="141.91608769289815,212.01671786015095 131.30948597509993,222.62331957794916 120.70288425730172,212.01671786015095 131.30948597509993,201.41011614235273" fill="none" stroke="black" stroke-width="0.2" /> <polygon points="138.80948597509993,219.51671786015095 123.80948597509993,219.51671786015095 123.80948597509993,204.51671786015095 138.80948597509993,204.51671786015095" fill="none" stroke="black" stroke-width="0.2" /> <circle cx="131.30948597509993" cy="212.01671786015095" r="5" fill="none" stroke="black" stroke-width="1.5" /> <polygon points="115.60660171779821,217.25 105.0,227.8566017177982 94.39339828220179,217.25 105.0,206.6433982822018" fill="none" stroke="black" stroke-width="0.2" /> <polygon points="112.5,224.75 97.5,224.75 97.5,209.75 112.5,209.75" fill="none" stroke="black" stroke-width="0.2" /> <circle cx="105.0" cy="217.25" r="5" fill="none" stroke="black" stroke-width="1.5" /> <polygon points="89.2971157426983,212.01671786015095 78.69051402490008,222.62331957794916 68.08391230710187,212.01671786015095 78.69051402490008,201.41011614235273" fill="none" stroke="black" stroke-width="0.2" /> <polygon points="86.19051402490008,219.51671786015095 71.19051402490008,219.51671786015095 71.19051402490008,204.51671786015095 86.19051402490008,204.51671786015095" fill="none" stroke="black" stroke-width="0.2" /> <circle cx="78.69051402490008" cy="212.01671786015095" r="5" fill="none" stroke="black" stroke-width="1.5" /> <polygon points="66.99301051122308,197.11359120657514 56.38640879342486,207.72019292437335 45.77980707562665,197.11359120657514 56.38640879342486,186.50698948877692" fill="none" stroke="black" stroke-width="0.2" /> <polygon points="63.88640879342486,204.61359120657514 48.88640879342486,204.61359120657514 48.88640879342486,189.61359120657514 63.88640879342486,189.61359120657514" fill="none" stroke="black" stroke-width="0.2" /> <circle cx="56.38640879342486" cy="197.11359120657514" r="5" fill="none" stroke="black" stroke-width="1.5" /> <polygon points="52.08988385764725,174.80948597509993 41.48328213984904,185.41608769289815 30.876680422050825,174.80948597509993 41.48328213984904,164.20288425730172" fill="none" stroke="black" stroke-width="0.2" /> <polygon points="48.98328213984904,182.30948597509993 33.98328213984904,182.30948597509993 33.98328213984904,167.30948597509993 48.98328213984904,167.30948597509993" fill="none" stroke="black" stroke-width="0.2" /> <circle cx="41.48328213984904" cy="174.80948597509993" r="5" fill="none" stroke="black" stroke-width="1.5" /> <polygon points="46.85660171779821,148.5 36.25,159.1066017177982 25.643398282201787,148.5 36.25,137.8933982822018" fill="none" stroke="black" stroke-width="0.2" /> <polygon points="43.75,156.0 28.75,156.0 28.75,141.0 43.75,141.0" fill="none" stroke="black" stroke-width="0.2" /> <circle cx="36.25" cy="148.5" r="5" fill="none" stroke="black" stroke-width="1.5" /> <polygon points="52.089883857647244,122.19051402490008 41.48328213984903,132.79711574269828 30.876680422050818,122.19051402490008 41.48328213984903,111.58391230710187" fill="none" stroke="black" stroke-width="0.2" /> <polygon points="48.98328213984903,129.6905140249001 33.98328213984903,129.6905140249001 33.98328213984903,114.69051402490008 48.98328213984903,114.69051402490008" fill="none" stroke="black" stroke-width="0.2" /> <circle cx="41.48328213984903" cy="122.19051402490008" r="5" fill="none" stroke="black" stroke-width="1.5" /> <polygon points="66.99301051122306,99.88640879342486 56.38640879342485,110.49301051122308 45.779807075626636,99.88640879342486 56.38640879342485,89.27980707562665" fill="none" stroke="black" stroke-width="0.2" /> <polygon points="63.88640879342485,107.38640879342486 48.88640879342485,107.38640879342486 48.88640879342485,92.38640879342486 63.88640879342485,92.38640879342486" fill="none" stroke="black" stroke-width="0.2" /> <circle cx="56.38640879342485" cy="99.88640879342486" r="5" fill="none" stroke="black" stroke-width="1.5" /> <polygon points="89.29711574269825,84.98328213984905 78.69051402490004,95.58988385764727 68.08391230710183,84.98328213984905 78.69051402490004,74.37668042205084" fill="none" stroke="black" stroke-width="0.2" /> <polygon points="86.19051402490004,92.48328213984905 71.19051402490004,92.48328213984905 71.19051402490004,77.48328213984905 86.19051402490004,77.48328213984905" fill="none" stroke="black" stroke-width="0.2" /> <circle cx="78.69051402490004" cy="84.98328213984905" r="5" fill="none" stroke="black" stroke-width="1.5" /> <polygon points="115.6066017177982,79.75 104.99999999999999,90.35660171779821 94.39339828220177,79.75 104.99999999999999,69.14339828220179" fill="none" stroke="black" stroke-width="0.2" /> <polygon points="112.49999999999999,87.25 97.49999999999999,87.25 97.49999999999999,72.25 112.49999999999999,72.25" fill="none" stroke="black" stroke-width="0.2" /> <circle cx="104.99999999999999" cy="79.75" r="5" fill="none" stroke="black" stroke-width="1.5" /> <polygon points="141.91608769289815,84.98328213984905 131.30948597509993,95.58988385764727 120.70288425730172,84.98328213984905 131.30948597509993,74.37668042205084" fill="none" stroke="black" stroke-width="0.2" /> <polygon points="138.80948597509993,92.48328213984905 123.80948597509993,92.48328213984905 123.80948597509993,77.48328213984905 138.80948597509993,77.48328213984905" fill="none" stroke="black" stroke-width="0.2" /> <circle cx="131.30948597509993" cy="84.98328213984905" r="5" fill="none" stroke="black" stroke-width="1.5" /> <polygon points="164.22019292437335,99.88640879342485 153.61359120657514,110.49301051122306 143.00698948877692,99.88640879342485 153.61359120657514,89.27980707562664" fill="none" stroke="black" stroke-width="0.2" /> <polygon points="161.11359120657514,107.38640879342485 146.11359120657514,107.38640879342485 146.11359120657514,92.38640879342485 161.11359120657514,92.38640879342485" fill="none" stroke="black" stroke-width="0.2" /> <circle cx="153.61359120657514" cy="99.88640879342485" r="5" fill="none" stroke="black" stroke-width="1.5" /> <polygon points="179.12331957794916,122.19051402490004 168.51671786015095,132.79711574269825 157.91011614235273,122.19051402490004 168.51671786015095,111.58391230710183" fill="none" stroke="black" stroke-width="0.2" /> <polygon points="176.01671786015095,129.69051402490004 161.01671786015095,129.69051402490004 161.01671786015095,114.69051402490004 176.01671786015095,114.69051402490004" fill="none" stroke="black" stroke-width="0.2" /> <circle cx="168.51671786015095" cy="122.19051402490004" r="5" fill="none" stroke="black" stroke-width="1.5" /> <polygon points="199.9816017177982,148.5 189.375,159.1066017177982 178.7683982822018,148.5 189.375,137.8933982822018" fill="none" stroke="black" stroke-width="0.2" /> <polygon points="196.875,156.0 181.875,156.0 181.875,141.0 196.875,141.0" fill="none" stroke="black" stroke-width="0.2" /> <circle cx="189.375" cy="148.5" r="5" fill="none" stroke="black" stroke-width="1.5" /> <polygon points="175.26873638041317,208.16213466261493 164.66213466261496,218.76873638041315 154.05553294481675,208.16213466261493 164.66213466261496,197.55553294481672" fill="none" stroke="black" stroke-width="0.2" /> <polygon points="172.16213466261496,215.66213466261493 157.16213466261496,215.66213466261493 157.16213466261496,200.66213466261493 172.16213466261496,200.66213466261493" fill="none" stroke="black" stroke-width="0.2" /> <circle cx="164.66213466261496" cy="208.16213466261493" r="5" fill="none" stroke="black" stroke-width="1.5" /> <polygon points="115.60660171779821,232.875 105.0,243.4816017177982 94.39339828220179,232.875 105.0,222.2683982822018" fill="none" stroke="black" stroke-width="0.2" /> <polygon points="112.5,240.375 97.5,240.375 97.5,225.375 112.5,225.375" fill="none" stroke="black" stroke-width="0.2" /> <circle cx="105.0" cy="232.875" r="5" fill="none" stroke="black" stroke-width="1.5" /> <polygon points="55.944467055183274,208.16213466261496 45.33786533738506,218.76873638041317 34.73126361958685,208.16213466261496 45.33786533738506,197.55553294481675" fill="none" stroke="black" stroke-width="0.2" /> <polygon points="52.83786533738506,215.66213466261496 37.83786533738506,215.66213466261496 37.83786533738506,200.66213466261496 52.83786533738506,200.66213466261496" fill="none" stroke="black" stroke-width="0.2" /> <circle cx="45.33786533738506" cy="208.16213466261496" r="5" fill="none" stroke="black" stroke-width="1.5" /> <polygon points="31.231601717798213,148.5 20.625,159.1066017177982 10.018398282201787,148.5 20.624999999999996,137.8933982822018" fill="none" stroke="black" stroke-width="0.2" /> <polygon points="28.125,156.0 13.125,156.0 13.124999999999998,141.0 28.125,141.0" fill="none" stroke="black" stroke-width="0.2" /> <circle cx="20.625" cy="148.5" r="5" fill="none" stroke="black" stroke-width="1.5" /> <polygon points="55.94446705518325,88.83786533738507 45.33786533738504,99.44446705518328 34.73126361958683,88.83786533738507 45.33786533738504,78.23126361958685" fill="none" stroke="black" stroke-width="0.2" /> <polygon points="52.83786533738504,96.33786533738507 37.83786533738504,96.33786533738507 37.83786533738504,81.33786533738507 52.83786533738504,81.33786533738507" fill="none" stroke="black" stroke-width="0.2" /> <circle cx="45.33786533738504" cy="88.83786533738507" r="5" fill="none" stroke="black" stroke-width="1.5" /> <polygon points="115.6066017177982,64.125 104.99999999999999,74.73160171779821 94.39339828220177,64.125 104.99999999999999,53.51839828220179" fill="none" stroke="black" stroke-width="0.2" /> <polygon points="112.49999999999999,71.625 97.49999999999999,71.625 97.49999999999999,56.625 112.49999999999999,56.625" fill="none" stroke="black" stroke-width="0.2" /> <circle cx="104.99999999999999" cy="64.125" r="5" fill="none" stroke="black" stroke-width="1.5" /> <polygon points="175.26873638041315,88.83786533738504 164.66213466261493,99.44446705518325 154.05553294481672,88.83786533738504 164.66213466261493,78.23126361958683" fill="none" stroke="black" stroke-width="0.2" /> <polygon points="172.16213466261493,96.33786533738504 157.16213466261493,96.33786533738504 157.16213466261493,81.33786533738504 172.16213466261493,81.33786533738504" fill="none" stroke="black" stroke-width="0.2" /> <circle cx="164.66213466261493" cy="88.83786533738504" r="5" fill="none" stroke="black" stroke-width="1.5" />
    </svg>