<svg xmlns="http://www.w3.org/2000/svg" width="210mm" height="297mm" viewBox="0 0 210 297">
        <polygon points="100.0,74.25 86.087572106361,88.16242789363899 86.08757210636101,107.837572106361 66.41242789363899,107.837572106361 52.5,121.75 38.58757210636101,107.837572106361 18.912427893639,107.83757210636101 18.912427893639,88.16242789363899 5.0,74.25 18.91242789363899,60.33757210636101 18.912427893638984,40.662427893639 38.58757210636099,40.662427893639006 52.49999999999999,26.75 66.412427893639,40.662427893639 86.087572106361,40.662427893638984 86.087572106361,60.33757210636099" fill="none" stroke="black" stroke-width="1" stroke-linejoin="round" /> <polygon points="63.10660171779821,74.25 52.5,84.85660171779821 41.89339828220179,74.25 52.5,63.64339828220179" fill="none" stroke="black" stroke-width="0.2" /> <polygon points="60.0,81.75 45.0,81.75 45.0,66.75 60.0,66.75" fill="none" stroke="black" stroke-width="0.2" /> <circle cx="52.5" cy="74.25" r="5" fill="none" stroke="black" stroke-width="1.5" /> <polygon points="82.40347671779821,74.25 71.796875,84.85660171779821 61.19027328220179,74.25 71.796875,63.64339828220179" fill="none" stroke="black" stroke-width="0.2" /> <polygon points="79.296875,81.75 64.296875,81.75 64.296875,66.75 79.296875,66.75" fill="none" stroke="black" stroke-width="0.2" /> <circle cx="71.796875" cy="74.25" r="5" fill="none" stroke="black" stroke-width="1.5" /> <polygon points="76.75155288600737,87.89495116820916 66.14495116820916,98.50155288600737 55.53834945041095,87.89495116820916 66.14495116820916,77.28834945041095" fill="none" stroke="black" stroke-width="0.2" /> <polygon points="73.64495116820916,95.39495116820916 58.64495116820916,95.39495116820916 58.64495116820916,80.39495116820916 73.64495116820916,80.39495116820916" fill="none" stroke="black" stroke-width="0.2" /> <circle cx="66.14495116820916" cy="87.89495116820916" r="5" fill="none" stroke="black" stroke-width="1.5" /> <polygon points="63.10660171779821,93.546875 52.5,104.15347671779821 41.89339828220179,93.546875 52.5,82.94027328220179" fill="none" stroke="black" stroke-width="0.2" /> <polygon points="60.0,101.046875 45.0,101.046875 45.0,86.046875 60.0,86.046875" fill="none" stroke="black" stroke-width="0.2" /> <circle cx="52.5" cy="93.546875" r="5" fill="none" stroke="black" stroke-width="1.5" /> <polygon points="49.46165054958905,87.89495116820916 38.85504883179084,98.50155288600737 28.248447113992626,87.89495116820916 38.85504883179084,77.28834945041095" fill="none" stroke="black" stroke-width="0.2" /> <polygon points="46.35504883179084,95.39495116820916 31.35504883179084,95.39495116820916 31.35504883179084,80.39495116820916 46.35504883179084,80.39495116820916" fill="none" stroke="black" stroke-width="0.2" /> <circle cx="38.85504883179084" cy="87.89495116820916" r="5" fill="none" stroke="black" stroke-width="1.5" /> <polygon points="43.80972671779821,74.25 33.203125,84.85660171779821 22.596523282201787,74.25 33.203125,63.64339828220179" fill="none" stroke="black" stroke-width="0.2" /> <polygon points="40.703125,81.75 25.703125,81.75 25.703125,66.75 40.703125,66.75" fill="none" stroke="black" stroke-width="0.2" /> <circle cx="33.203125" cy="74.25" r="5" fill="none" stroke="black" stroke-width="1.5" /> <polygon points="49.46165054958905,60.605048831790846 38.85504883179084,71.21165054958905 28.248447113992626,60.605048831790846 38.85504883179084,49.99844711399263" fill="none" stroke="black" stroke-width="0.2" /> <polygon points="46.35504883179084,68.10504883179084 31.35504883179084,68.10504883179085 31.35504883179084,53.105048831790846 46.35504883179084,53.105048831790846" fill="none" stroke="black" stroke-width="0.2" /> <circle cx="38.85504883179084" cy="60.605048831790846" r="5" fill="none" stroke="black" stroke-width="1.5" /> <polygon points="63.10660171779821,54.953125 52.5,65.55972671779821 41.89339828220179,54.953125 52.5,44.34652328220179" fill="none" stroke="black" stroke-width="0.2" /> <polygon points="60.0,62.453125 45.0,62.453125 45.0,47.453125 60.0,47.453125" fill="none" stroke="black" stroke-width="0.2" /> <circle cx="52.5" cy="54.953125" r="5" fill="none" stroke="black" stroke-width="1.5" /> <polygon points="76.75155288600737,60.60504883179084 66.14495116820916,71.21165054958905 55.53834945041095,60.60504883179084 66.14495116820916,49.998447113992626" fill="none" stroke="black" stroke-width="0.2" /> <polygon points="73.64495116820916,68.10504883179084 58.64495116820916,68.10504883179084 58.64495116820916,53.10504883179084 73.64495116820916,53.10504883179084" fill="none" stroke="black" stroke-width="0.2" /> <circle cx="66.14495116820916" cy="60.60504883179084" r="5" fill="none" stroke="black" stroke-width="1.5" /> <polygon points="97.24722671779821,74.25 86.640625,84.85660171779821 76.03402328220179,74.25 86.640625,63.64339828220179" fill="none" stroke="black" stroke-width="0.2" /> <polygon points="94.140625,81.75 79.140625,81.75 79.140625,66.75 94.140625,66.75" fill="none" stroke="black" stroke-width="0.2" /> <circle cx="86.640625" cy="74.25" r="5" fill="none" stroke="black" stroke-width="1.5" /> <polygon points="87.24766916924519,98.39106745144697 76.64106745144697,108.99766916924519 66.03446573364876,98.39106745144697 76.64106745144697,87.78446573364876" fill="none" stroke="black" stroke-width="0.2" /> <polygon points="84.14106745144697,105.89106745144697 69.14106745144697,105.89106745144697 69.14106745144697,90.89106745144697 84.14106745144697,90.89106745144697" fill="none" stroke="black" stroke-width="0.2" /> <circle cx="76.64106745144697" cy="98.39106745144697" r="5" fill="none" stroke="black" stroke-width="1.5" /> <polygon points="63.10660171779821,108.390625 52.5,118.99722671779821 41.89339828220179,108.390625 52.5,97.78402328220179" fill="none" stroke="black" stroke-width="0.2" /> <polygon points="60.0,115.890625 45.0,115.890625 45.0,100.890625 60.0,100.890625" fill="none" stroke="black" stroke-width="0.2" /> <circle cx="52.5" cy="108.390625" r="5" fill="none" stroke="black" stroke-width="1.5" /> <polygon points="38.96553426635124,98.39106745144697 28.358932548553028,108.99766916924519 17.752330830754815,98.39106745144697 28.358932548553025,87.78446573364876" fill="none" stroke="black" stroke-width="0.2" /> <polygon points="35.85893254855303,105.89106745144697 20.858932548553028,105.89106745144697 20.858932548553028,90.89106745144697 35.85893254855303,90.89106745144697" fill="none" stroke="black" stroke-width="0.2" /> <circle cx="28.358932548553028" cy="98.39106745144697" r="5" fill="none" stroke="black" stroke-width="1.5" /> <polygon points="28.965976717798213,74.25 18.359375,84.85660171779821 7.752773282201787,74.25 18.359374999999996,63.64339828220179" fill="none" stroke="black" stroke-width="0.2" /> <polygon points="25.859375,81.75 10.859375,81.75 10.859374999999998,66.75 25.859375,66.75" fill="none" stroke="black" stroke-width="0.2" /> <circle cx="18.359375" cy="74.25" r="5" fill="none" stroke="black" stroke-width="1.5" /> <polygon points="38.965534266351234,50.10893254855303 28.35893254855302,60.71553426635124 17.752330830754808,50.10893254855303 28.358932548553017,39.502330830754815" fill="none" stroke="black" stroke-width="0.2" /> <polygon points="35.85893254855302,57.60893254855303 20.85893254855302,57.60893254855303 20.85893254855302,42.60893254855303 35.85893254855302,42.60893254855303" fill="none" stroke="black" stroke-width="0.2" /> <circle cx="28.35893254855302" cy="50.10893254855303" r="5" fill="none" stroke="black" stroke-width="1.5" /> <polygon points="63.106601717798206,40.109375 52.49999999999999,50.71597671779821 41.89339828220178,40.109375 52.49999999999999,29.502773282201787" fill="none" stroke="black" stroke-width="0.2" /> <polygon points="59.99999999999999,47.609375 44.99999999999999,47.609375 44.99999999999999,32.609375 59.99999999999999,32.609375" fill="none" stroke="black" stroke-width="0.2" /> <circle cx="52.49999999999999" cy="40.109375" r="5" fill="none" stroke="black" stroke-width="1.5" /> <polygon points="87.24766916924519,50.10893254855302 76.64106745144697,60.715534266351234 66.03446573364876,50.10893254855302 76.64106745144697,39.50233083075481" fill="none" stroke="black" stroke-width="0.2" /> <polygon points="84.14106745144697,57.60893254855302 69.14106745144697,57.60893254855302 69.14106745144697,42.60893254855302 84.14106745144697,42.60893254855302" fill="none" stroke="black" stroke-width="0.2" /> <circle cx="76.64106745144697" cy="50.10893254855302" r="5" fill="none" stroke="black" stroke-width="1.5" /> <polygon points="205.0,74.25 191.087572106361,88.16242789363899 191.087572106361,107.837572106361 171.412427893639,107.837572106361 157.5,121.75 143.58757210636102,107.837572106361 123.912427893639,107.83757210636101 123.912427893639,88.16242789363899 110.0,74.25 123.91242789363899,60.33757210636101 123.91242789363898,40.662427893639 143.587572106361,40.662427893639006 157.5,26.75 171.412427893639,40.662427893639 191.087572106361,40.662427893638984 191.087572106361,60.33757210636099" fill="none" stroke="black" stroke-width="1" stroke-linejoin="round" /> <polygon points="168.1066017177982,74.25 157.5,84.85660171779821 146.8933982822018,74.25 157.5,63.64339828220179" fill="none" stroke="black" stroke-width="0.2" /> <polygon points="165.0,81.75 150.0,81.75 150.0,66.75 165.0,66.75" fill="none" stroke="black" stroke-width="0.2" /> <circle cx="157.5" cy="74.25" r="5" fill="none" stroke="black" stroke-width="1.5" /> <polygon points="187.4034767177982,74.25 176.796875,84.85660171779821 166.1902732822018,74.25 176.796875,63.64339828220179" fill="none" stroke="black" stroke-width="0.2" /> <polygon points="184.296875,81.75 169.296875,81.75 169.296875,66.75 184.296875,66.75" fill="none" stroke="black" stroke-width="0.2" /> <circle cx="176.796875" cy="74.25" r="5" fill="none" stroke="black" stroke-width="1.5" /> <polygon points="181.75155288600737,87.89495116820916 171.14495116820916,98.50155288600737 160.53834945041095,87.89495116820916 171.14495116820916,77.28834945041095" fill="none" stroke="black" stroke-width="0.2" /> <polygon points="178.64495116820916,95.39495116820916 163.64495116820916,95.39495116820916 163.64495116820916,80.39495116820916 178.64495116820916,80.39495116820916" fill="none" stroke="black" stroke-width="0.2" /> <circle cx="171.14495116820916" cy="87.89495116820916" r="5" fill="none" stroke="black" stroke-width="1.5" /> <polygon points="168.1066017177982,93.546875 157.5,104.15347671779821 146.8933982822018,93.546875 157.5,82.94027328220179" fill="none" stroke="black" stroke-width="0.2" /> <polygon points="165.0,101.046875 150.0,101.046875 150.0,86.046875 165.0,86.046875" fill="none" stroke="black" stroke-width="0.2" /> <circle cx="157.5" cy="93.546875" r="5" fill="none" stroke="black" stroke-width="1.5" /> <polygon points="154.46165054958905,87.89495116820916 143.85504883179084,98.50155288600737 133.24844711399263,87.89495116820916 143.85504883179084,77.28834945041095" fill="none" stroke="black" stroke-width="0.2" /> <polygon points="151.35504883179084,95.39495116820916 136.35504883179084,95.39495116820916 136.35504883179084,80.39495116820916 151.35504883179084,80.39495116820916" fill="none" stroke="black" stroke-width="0.2" /> <circle cx="143.85504883179084" cy="87.89495116820916" r="5" fill="none" stroke="black" stroke-width="1.5" /> <polygon points="148.8097267177982,74.25 138.203125,84.85660171779821 127.59652328220179,74.25 138.203125,63.64339828220179" fill="none" stroke="black" stroke-width="0.2" /> <polygon points="145.703125,81.75 130.703125,81.75 130.703125,66.75 145.703125,66.75" fill="none" stroke="black" stroke-width="0.2" /> <circle cx="138.203125" cy="74.25" r="5" fill="none" stroke="black" stroke-width="1.5" /> <polygon points="154.46165054958905,60.605048831790846 143.85504883179084,71.21165054958905 133.24844711399263,60.605048831790846 143.85504883179084,49.99844711399263" fill="none" stroke="black" stroke-width="0.2" /> <polygon points="151.35504883179084,68.10504883179084 136.35504883179084,68.10504883179085 136.35504883179084,53.105048831790846 151.35504883179084,53.105048831790846" fill="none" stroke="black" stroke-width="0.2" /> <circle cx="143.85504883179084" cy="60.605048831790846" r="5" fill="none" stroke="black" stroke-width="1.5" /> <polygon points="168.1066017177982,54.953125 157.5,65.55972671779821 146.8933982822018,54.953125 157.5,44.34652328220179" fill="none" stroke="black" stroke-width="0.2" /> <polygon points="165.0,62.453125 150.0,62.453125 150.0,47.453125 165.0,47.453125" fill="none" stroke="black" stroke-width="0.2" /> <circle cx="157.5" cy="54.953125" r="5" fill="none" stroke="black" stroke-width="1.5" /> <polygon points="181.75155288600737,60.60504883179084 171.14495116820916,71.21165054958905 160.53834945041095,60.60504883179084 171.14495116820916,49.998447113992626" fill="none" stroke="black" stroke-width="0.2" /> <polygon points="178.64495116820916,68.10504883179084 163.64495116820916,68.10504883179084 163.64495116820916,53.10504883179084 178.64495116820916,53.10504883179084" fill="none" stroke="black" stroke-width="0.2" /> <circle cx="171.14495116820916" cy="60.60504883179084" r="5" fill="none" stroke="black" stroke-width="1.5" /> <polygon points="202.2472267177982,74.25 191.640625,84.85660171779821 181.0340232822018,74.25 191.640625,63.64339828220179" fill="none" stroke="black" stroke-width="0.2" /> <polygon points="199.140625,81.75 184.140625,81.75 184.140625,66.75 199.140625,66.75" fill="none" stroke="black" stroke-width="0.2" /> <circle cx="191.640625" cy="74.25" r="5" fill="none" stroke="black" stroke-width="1.5" /> <polygon points="192.2476691692452,98.39106745144697 181.641067451447,108.99766916924519 171.03446573364877,98.39106745144697 181.641067451447,87.78446573364876" fill="none" stroke="black" stroke-width="0.2" /> <polygon points="189.141067451447,105.89106745144697 174.141067451447,105.89106745144697 174.141067451447,90.89106745144697 189.141067451447,90.89106745144697" fill="none" stroke="black" stroke-width="0.2" /> <circle cx="181.641067451447" cy="98.39106745144697" r="5" fill="none" stroke="black" stroke-width="1.5" /> <polygon points="168.1066017177982,108.390625 157.5,118.99722671779821 146.8933982822018,108.390625 157.5,97.78402328220179" fill="none" stroke="black" stroke-width="0.2" /> <polygon points="165.0,115.890625 150.0,115.890625 150.0,100.890625 165.0,100.890625" fill="none" stroke="black" stroke-width="0.2" /> <circle cx="157.5" cy="108.390625" r="5" fill="none" stroke="black" stroke-width="1.5" /> <polygon points="143.96553426635123,98.39106745144697 133.358932548553,108.99766916924519 122.7523308307548,98.39106745144697 133.358932548553,87.78446573364876" fill="none" stroke="black" stroke-width="0.2" /> <polygon points="140.858932548553,105.89106745144697 125.85893254855301,105.89106745144697 125.85893254855301,90.89106745144697 140.858932548553,90.89106745144697" fill="none" stroke="black" stroke-width="0.2" /> <circle cx="133.358932548553" cy="98.39106745144697" r="5" fill="none" stroke="black" stroke-width="1.5" /> <polygon points="133.9659767177982,74.25 123.359375,84.85660171779821 112.75277328220179,74.25 123.359375,63.64339828220179" fill="none" stroke="black" stroke-width="0.2" /> <polygon points="130.859375,81.75 115.859375,81.75 115.859375,66.75 130.859375,66.75" fill="none" stroke="black" stroke-width="0.2" /> <circle cx="123.359375" cy="74.25" r="5" fill="none" stroke="black" stroke-width="1.5" /> <polygon points="143.96553426635123,50.10893254855303 133.358932548553,60.71553426635124 122.7523308307548,50.10893254855303 133.358932548553,39.502330830754815" fill="none" stroke="black" stroke-width="0.2" /> <polygon points="140.858932548553,57.60893254855303 125.85893254855301,57.60893254855303 125.85893254855301,42.60893254855303 140.858932548553,42.60893254855303" fill="none" stroke="black" stroke-width="0.2" /> <circle cx="133.358932548553" cy="50.10893254855303" r="5" fill="none" stroke="black" stroke-width="1.5" /> <polygon points="168.1066017177982,40.109375 157.5,50.71597671779821 146.8933982822018,40.109375 157.5,29.502773282201787" fill="none" stroke="black" stroke-width="0.2" /> <polygon points="165.0,47.609375 150.0,47.609375 150.0,32.609375 165.0,32.609375" fill="none" stroke="black" stroke-width="0.2" /> <circle cx="157.5" cy="40.109375" r="5" fill="none" stroke="black" stroke-width="1.5" /> <polygon points="192.24766916924517,50.10893254855302 181.64106745144696,60.715534266351234 171.03446573364874,50.10893254855302 181.64106745144696,39.50233083075481" fill="none" stroke="black" stroke-width="0.2" /> <polygon points="189.14106745144696,57.60893254855302 174.14106745144696,57.60893254855302 174.14106745144696,42.60893254855302 189.14106745144696,42.60893254855302" fill="none" stroke="black" stroke-width="0.2" /> <circle cx="181.64106745144696" cy="50.10893254855302" r="5" fill="none" stroke="black" stroke-width="1.5" /> <polygon points="100.0,222.75 86.087572106361,236.662427893639 86.08757210636101,256.337572106361 66.41242789363899,256.337572106361 52.5,270.25 38.58757210636101,256.337572106361 18.912427893639,256.337572106361 18.912427893639,236.662427893639 5.0,222.75 18.91242789363899,208.83757210636102 18.912427893638984,189.162427893639 38.58757210636099,189.162427893639 52.49999999999999,175.25 66.412427893639,189.162427893639 86.087572106361,189.16242789363898 86.087572106361,208.837572106361" fill="none" stroke="black" stroke-width="1" stroke-linejoin="round" /> <polygon points="63.10660171779821,222.75 52.5,233.3566017177982 41.89339828220179,222.75 52.5,212.1433982822018" fill="none" stroke="black" stroke-width="0.2" /> <polygon points="60.0,230.25 45.0,230.25 45.0,215.25 60.0,215.25" fill="none" stroke="black" stroke-width="0.2" /> <circle cx="52.5" cy="222.75" r="5" fill="none" stroke="black" stroke-width="1.5" /> <polygon points="82.40347671779821,222.75 71.796875,233.3566017177982 61.19027328220179,222.75 71.796875,212.1433982822018" fill="none" stroke="black" stroke-width="0.2" /> <polygon points="79.296875,230.25 64.296875,230.25 64.296875,215.25 79.296875,215.25" fill="none" stroke="black" stroke-width="0.2" /> <circle cx="71.796875" cy="222.75" r="5" fill="none" stroke="black" stroke-width="1.5" /> <polygon points="76.75155288600737,236.39495116820916 66.14495116820916,247.00155288600737 55.53834945041095,236.39495116820916 66.14495116820916,225.78834945041095" fill="none" stroke="black" stroke-width="0.2" /> <polygon points="73.64495116820916,243.89495116820916 58.64495116820916,243.89495116820916 58.64495116820916,228.89495116820916 73.64495116820916,228.89495116820916" fill="none" stroke="black" stroke-width="0.2" /> <circle cx="66.14495116820916" cy="236.39495116820916" r="5" fill="none" stroke="black" stroke-width="1.5" /> <polygon points="63.10660171779821,242.046875 52.5,252.6534767177982 41.89339828220179,242.046875 52.5,231.4402732822018" fill="none" stroke="black" stroke-width="0.2" /> <polygon points="60.0,249.546875 45.0,249.546875 45.0,234.546875 60.0,234.546875" fill="none" stroke="black" stroke-width="0.2" /> <circle cx="52.5" cy="242.046875" r="5" fill="none" stroke="black" stroke-width="1.5" /> <polygon points="49.46165054958905,236.39495116820916 38.85504883179084,247.00155288600737 28.248447113992626,236.39495116820916 38.85504883179084,225.78834945041095" fill="none" stroke="black" stroke-width="0.2" /> <polygon points="46.35504883179084,243.89495116820916 31.35504883179084,243.89495116820916 31.35504883179084,228.89495116820916 46.35504883179084,228.89495116820916" fill="none" stroke="black" stroke-width="0.2" /> <circle cx="38.85504883179084" cy="236.39495116820916" r="5" fill="none" stroke="black" stroke-width="1.5" /> <polygon points="43.80972671779821,222.75 33.203125,233.3566017177982 22.596523282201787,222.75 33.203125,212.1433982822018" fill="none" stroke="black" stroke-width="0.2" /> <polygon points="40.703125,230.25 25.703125,230.25 25.703125,215.25 40.703125,215.25" fill="none" stroke="black" stroke-width="0.2" /> <circle cx="33.203125" cy="222.75" r="5" fill="none" stroke="black" stroke-width="1.5" /> <polygon points="49.46165054958905,209.10504883179084 38.85504883179084,219.71165054958905 28.248447113992626,209.10504883179084 38.85504883179084,198.49844711399263" fill="none" stroke="black" stroke-width="0.2" /> <polygon points="46.35504883179084,216.60504883179084 31.35504883179084,216.60504883179084 31.35504883179084,201.60504883179084 46.35504883179084,201.60504883179084" fill="none" stroke="black" stroke-width="0.2" /> <circle cx="38.85504883179084" cy="209.10504883179084" r="5" fill="none" stroke="black" stroke-width="1.5" /> <polygon points="63.10660171779821,203.453125 52.5,214.0597267177982 41.89339828220179,203.453125 52.5,192.8465232822018" fill="none" stroke="black" stroke-width="0.2" /> <polygon points="60.0,210.953125 45.0,210.953125 45.0,195.953125 60.0,195.953125" fill="none" stroke="black" stroke-width="0.2" /> <circle cx="52.5" cy="203.453125" r="5" fill="none" stroke="black" stroke-width="1.5" /> <polygon points="76.75155288600737,209.10504883179084 66.14495116820916,219.71165054958905 55.53834945041095,209.10504883179084 66.14495116820916,198.49844711399263" fill="none" stroke="black" stroke-width="0.2" /> <polygon points="73.64495116820916,216.60504883179084 58.64495116820916,216.60504883179084 58.64495116820916,201.60504883179084 73.64495116820916,201.60504883179084" fill="none" stroke="black" stroke-width="0.2" /> <circle cx="66.14495116820916" cy="209.10504883179084" r="5" fill="none" stroke="black" stroke-width="1.5" /> <polygon points="97.24722671779821,222.75 86.640625,233.3566017177982 76.03402328220179,222.75 86.640625,212.1433982822018" fill="none" stroke="black" stroke-width="0.2" /> <polygon points="94.140625,230.25 79.140625,230.25 79.140625,215.25 94.140625,215.25" fill="none" stroke="black" stroke-width="0.2" /> <circle cx="86.640625" cy="222.75" r="5" fill="none" stroke="black" stroke-width="1.5" /> <polygon points="87.24766916924519,246.891067451447 76.64106745144697,257.4976691692452 66.03446573364876,246.891067451447 76.64106745144697,236.28446573364877" fill="none" stroke="black" stroke-width="0.2" /> <polygon points="84.14106745144697,254.391067451447 69.14106745144697,254.391067451447 69.14106745144697,239.391067451447 84.14106745144697,239.391067451447" fill="none" stroke="black" stroke-width="0.2" /> <circle cx="76.64106745144697" cy="246.891067451447" r="5" fill="none" stroke="black" stroke-width="1.5" /> <polygon points="63.10660171779821,256.890625 52.5,267.4972267177982 41.89339828220179,256.890625 52.5,246.2840232822018" fill="none" stroke="black" stroke-width="0.2" /> <polygon points="60.0,264.390625 45.0,264.390625 45.0,249.390625 60.0,249.390625" fill="none" stroke="black" stroke-width="0.2" /> <circle cx="52.5" cy="256.890625" r="5" fill="none" stroke="black" stroke-width="1.5" /> <polygon points="38.96553426635124,246.891067451447 28.358932548553028,257.4976691692452 17.752330830754815,246.891067451447 28.358932548553025,236.28446573364877" fill="none" stroke="black" stroke-width="0.2" /> <polygon points="35.85893254855303,254.391067451447 20.858932548553028,254.391067451447 20.858932548553028,239.391067451447 35.85893254855303,239.391067451447" fill="none" stroke="black" stroke-width="0.2" /> <circle cx="28.358932548553028" cy="246.891067451447" r="5" fill="none" stroke="black" stroke-width="1.5" /> <polygon points="28.965976717798213,222.75 18.359375,233.3566017177982 7.752773282201787,222.75 18.359374999999996,212.1433982822018" fill="none" stroke="black" stroke-width="0.2" /> <polygon points="25.859375,230.25 10.859375,230.25 10.859374999999998,215.25 25.859375,215.25" fill="none" stroke="black" stroke-width="0.2" /> <circle cx="18.359375" cy="222.75" r="5" fill="none" stroke="black" stroke-width="1.5" /> <polygon points="38.965534266351234,198.60893254855304 28.35893254855302,209.21553426635126 17.752330830754808,198.60893254855304 28.358932548553017,188.00233083075483" fill="none" stroke="black" stroke-width="0.2" /> <polygon points="35.85893254855302,206.10893254855304 20.85893254855302,206.10893254855304 20.85893254855302,191.10893254855304 35.85893254855302,191.10893254855304" fill="none" stroke="black" stroke-width="0.2" /> <circle cx="28.35893254855302" cy="198.60893254855304" r="5" fill="none" stroke="black" stroke-width="1.5" /> <polygon points="63.106601717798206,188.609375 52.49999999999999,199.2159767177982 41.89339828220178,188.609375 52.49999999999999,178.0027732822018" fill="none" stroke="black" stroke-width="0.2" /> <polygon points="59.99999999999999,196.109375 44.99999999999999,196.109375 44.99999999999999,181.109375 59.99999999999999,181.109375" fill="none" stroke="black" stroke-width="0.2" /> <circle cx="52.49999999999999" cy="188.609375" r="5" fill="none" stroke="black" stroke-width="1.5" /> <polygon points="87.24766916924519,198.608932548553 76.64106745144697,209.21553426635123 66.03446573364876,198.608932548553 76.64106745144697,188.0023308307548" fill="none" stroke="black" stroke-width="0.2" /> <polygon points="84.14106745144697,206.108932548553 69.14106745144697,206.108932548553 69.14106745144697,191.108932548553 84.14106745144697,191.108932548553" fill="none" stroke="black" stroke-width="0.2" /> <circle cx="76.64106745144697" cy="198.608932548553" r="5" fill="none" stroke="black" stroke-width="1.5" /> <polygon points="205.0,222.75 191.087572106361,236.662427893639 191.087572106361,256.337572106361 171.412427893639,256.337572106361 157.5,270.25 143.58757210636102,256.337572106361 123.912427893639,256.337572106361 123.912427893639,236.662427893639 110.0,222.75 123.91242789363899,208.83757210636102 123.91242789363898,189.162427893639 143.587572106361,189.162427893639 157.5,175.25 171.412427893639,189.162427893639 191.087572106361,189.16242789363898 191.087572106361,208.837572106361" fill="none" stroke="black" stroke-width="1" stroke-linejoin="round" /> <polygon points="168.1066017177982,222.75 157.5,233.3566017177982 146.8933982822018,222.75 157.5,212.1433982822018" fill="none" stroke="black" stroke-width="0.2" /> <polygon points="165.0,230.25 150.0,230.25 150.0,215.25 165.0,215.25" fill="none" stroke="black" stroke-width="0.2" /> <circle cx="157.5" cy="222.75" r="5" fill="none" stroke="black" stroke-width="1.5" /> <polygon points="187.4034767177982,222.75 176.796875,233.3566017177982 166.1902732822018,222.75 176.796875,212.1433982822018" fill="none" stroke="black" stroke-width="0.2" /> <polygon points="184.296875,230.25 169.296875,230.25 169.296875,215.25 184.296875,215.25" fill="none" stroke="black" stroke-width="0.2" /> <circle cx="176.796875" cy="222.75" r="5" fill="none" stroke="black" stroke-width="1.5" /> <polygon points="181.75155288600737,236.39495116820916 171.14495116820916,247.00155288600737 160.53834945041095,236.39495116820916 171.14495116820916,225.78834945041095" fill="none" stroke="black" stroke-width="0.2" /> <polygon points="178.64495116820916,243.89495116820916 163.64495116820916,243.89495116820916 163.64495116820916,228.89495116820916 178.64495116820916,228.89495116820916" fill="none" stroke="black" stroke-width="0.2" /> <circle cx="171.14495116820916" cy="236.39495116820916" r="5" fill="none" stroke="black" stroke-width="1.5" /> <polygon points="168.1066017177982,242.046875 157.5,252.6534767177982 146.8933982822018,242.046875 157.5,231.4402732822018" fill="none" stroke="black" stroke-width="0.2" /> <polygon points="165.0,249.546875 150.0,249.546875 150.0,234.546875 165.0,234.546875" fill="none" stroke="black" stroke-width="0.2" /> <circle cx="157.5" cy="242.046875" r="5" fill="none" stroke="black" stroke-width="1.5" /> <polygon points="154.46165054958905,236.39495116820916 143.85504883179084,247.00155288600737 133.24844711399263,236.39495116820916 143.85504883179084,225.78834945041095" fill="none" stroke="black" stroke-width="0.2" /> <polygon points="151.35504883179084,243.89495116820916 136.35504883179084,243.89495116820916 136.35504883179084,228.89495116820916 151.35504883179084,228.89495116820916" fill="none" stroke="black" stroke-width="0.2" /> <circle cx="143.85504883179084" cy="236.39495116820916" r="5" fill="none" stroke="black" stroke-width="1.5" /> <polygon points="148.8097267177982,222.75 138.203125,233.3566017177982 127.59652328220179,222.75 138.203125,212.1433982822018" fill="none" stroke="black" stroke-width="0.2" /> <polygon points="145.703125,230.25 130.703125,230.25 130.703125,215.25 145.703125,215.25" fill="none" stroke="black" stroke-width="0.2" /> <circle cx="138.203125" cy="222.75" r="5" fill="none" stroke="black" stroke-width="1.5" /> <polygon points="154.46165054958905,209.10504883179084 143.85504883179084,219.71165054958905 133.24844711399263,209.10504883179084 143.85504883179084,198.49844711399263" fill="none" stroke="black" stroke-width="0.2" /> <polygon points="151.35504883179084,216.60504883179084 136.35504883179084,216.60504883179084 136.35504883179084,201.60504883179084 151.35504883179084,201.60504883179084" fill="none" stroke="black" stroke-width="0.2" /> <circle cx="143.85504883179084" cy="209.10504883179084" r="5" fill="none" stroke="black" stroke-width="1.5" /> <polygon points="168.1066017177982,203.453125 157.5,214.0597267177982 146.8933982822018,203.453125 157.5,192.8465232822018" fill="none" stroke="black" stroke-width="0.2" /> <polygon points="165.0,210.953125 150.0,210.953125 150.0,195.953125 165.0,195.953125" fill="none" stroke="black" stroke-width="0.2" /> <circle cx="157.5" cy="203.453125" r="5" fill="none" stroke="black" stroke-width="1.5" /> <polygon points="181.75155288600737,209.10504883179084 171.14495116820916,219.71165054958905 160.53834945041095,209.10504883179084 171.14495116820916,198.49844711399263" fill="none" stroke="black" stroke-width="0.2" /> <polygon points="178.64495116820916,216.60504883179084 163.64495116820916,216.60504883179084 163.64495116820916,201.60504883179084 178.64495116820916,201.60504883179084" fill="none" stroke="black" stroke-width="0.2" /> <circle cx="171.14495116820916" cy="209.10504883179084" r="5" fill="none" stroke="black" stroke-width="1.5" /> <polygon points="202.2472267177982,222.75 191.640625,233.3566017177982 181.0340232822018,222.75 191.640625,212.1433982822018" fill="none" stroke="black" stroke-width="0.2" /> <polygon points="199.140625,230.25 184.140625,230.25 184.140625,215.25 199.140625,215.25" fill="none" stroke="black" stroke-width="0.2" /> <circle cx="191.640625" cy="222.75" r="5" fill="none" stroke="black" stroke-width="1.5" /> <polygon points="192.2476691692452,246.891067451447 181.641067451447,257.4976691692452 171.03446573364877,246.891067451447 181.641067451447,236.28446573364877" fill="none" stroke="black" stroke-width="0.2" /> <polygon points="189.141067451447,254.391067451447 174.141067451447,254.391067451447 174.141067451447,239.391067451447 189.141067451447,239.391067451447" fill="none" stroke="black" stroke-width="0.2" /> <circle cx="181.641067451447" cy="246.891067451447" r="5" fill="none" stroke="black" stroke-width="1.5" /> <polygon points="168.1066017177982,256.890625 157.5,267.4972267177982 146.8933982822018,256.890625 157.5,246.2840232822018" fill="none" stroke="black" stroke-width="0.2" /> <polygon points="165.0,264.390625 150.0,264.390625 150.0,249.390625 165.0,249.390625" fill="none" stroke="black" stroke-width="0.2" /> <circle cx="157.5" cy="256.890625" r="5" fill="none" stroke="black" stroke-width="1.5" /> <polygon points="143.96553426635123,246.891067451447 133.358932548553,257.4976691692452 122.7523308307548,246.891067451447 133.358932548553,236.28446573364877" fill="none" stroke="black" stroke-width="0.2" /> <polygon points="140.858932548553,254.391067451447 125.85893254855301,254.391067451447 125.85893254855301,239.391067451447 140.858932548553,239.391067451447" fill="none" stroke="black" stroke-width="0.2" /> <circle cx="133.358932548553" cy="246.891067451447" r="5" fill="none" stroke="black" stroke-width="1.5" /> <polygon points="133.9659767177982,222.75 123.359375,233.3566017177982 112.75277328220179,222.75 123.359375,212.1433982822018" fill="none" stroke="black" stroke-width="0.2" /> <polygon points="130.859375,230.25 115.859375,230.25 115.859375,215.25 130.859375,215.25" fill="none" stroke="black" stroke-width="0.2" /> <circle cx="123.359375" cy="222.75" r="5" fill="none" stroke="black" stroke-width="1.5" /> <polygon points="143.96553426635123,198.60893254855304 133.358932548553,209.21553426635126 122.7523308307548,198.60893254855304 133.358932548553,188.00233083075483" fill="none" stroke="black" stroke-width="0.2" /> <polygon points="140.858932548553,206.10893254855304 125.85893254855301,206.10893254855304 125.85893254855301,191.10893254855304 140.858932548553,191.10893254855304" fill="none" stroke="black" stroke-width="0.2" /> <circle cx="133.358932548553" cy="198.60893254855304" r="5" fill="none" stroke="black" stroke-width="1.5" /> <polygon points="168.1066017177982,188.609375 157.5,199.2159767177982 146.8933982822018,188.609375 157.5,178.0027732822018" fill="none" stroke="black" stroke-width="0.2" /> <polygon points="165.0,196.109375 150.0,196.109375 150.0,181.109375 165.0,181.109375" fill="none" stroke="black" stroke-width="0.2" /> <circle cx="157.5" cy="188.609375" r="5" fill="none" stroke="black" stroke-width="1.5" /> <polygon points="192.24766916924517,198.608932548553 181.64106745144696,209.21553426635123 171.03446573364874,198.608932548553 181.64106745144696,188.0023308307548" fill="none" stroke="black" stroke-width="0.2" /> <polygon points="189.14106745144696,206.108932548553 174.14106745144696,206.108932548553 174.14106745144696,191.108932548553 189.14106745144696,191.108932548553" fill="none" stroke="black" stroke-width="0.2" /> <circle cx="181.64106745144696" cy="198.608932548553" r="5" fill="none" stroke="black" stroke-width="1.5" />
    </svg>